<svg width="100%" height="100%" id="svg" viewBox="0 0 1440 350" xmlns="http://www.w3.org/2000/svg" class="transition duration-300 ease-in-out delay-150"><defs><linearGradient id="gradient" x1="0%" y1="50%" x2="100%" y2="50%"><stop offset="5%" stop-color="#f7def4"></stop><stop offset="95%" stop-color="#bce2ea"></stop></linearGradient></defs><path d="M 0,400 C 0,400 0,133 0,133 C 105.67857142857142,143 211.35714285714283,153 332,140 C 452.64285714285717,127 588.2500000000001,91.00000000000001 721,90 C 853.7499999999999,88.99999999999999 983.6428571428571,123 1103,136 C 1222.357142857143,149 1331.1785714285716,141 1440,133 C 1440,133 1440,400 1440,400 Z" stroke="none" stroke-width="0" fill="url(#gradient)" fill-opacity="0.53" class="transition-all duration-300 ease-in-out delay-150 path-0"></path><defs><linearGradient id="gradient" x1="0%" y1="50%" x2="100%" y2="50%"><stop offset="5%" stop-color="#f7def4"></stop><stop offset="95%" stop-color="#bce2ea"></stop></linearGradient></defs><path d="M 0,400 C 0,400 0,266 0,266 C 113.67857142857142,285.9642857142857 227.35714285714283,305.92857142857144 333,308 C 438.64285714285717,310.07142857142856 536.2499999999999,294.25 661,277 C 785.7500000000001,259.75 937.6428571428573,241.07142857142858 1072,239 C 1206.3571428571427,236.92857142857142 1323.1785714285713,251.46428571428572 1440,266 C 1440,266 1440,400 1440,400 Z" stroke="none" stroke-width="0" fill="url(#gradient)" fill-opacity="1" class="transition-all duration-300 ease-in-out delay-150 path-1"></path></svg>