<svg width="100%" height="100%" id="svg" viewBox="0 0 1440 700" xmlns="http://www.w3.org/2000/svg" class="transition duration-300 ease-in-out delay-150"><defs><linearGradient id="gradient" x1="0%" y1="50%" x2="100%" y2="50%"><stop offset="5%" stop-color="#f7def4"></stop><stop offset="95%" stop-color="#bce2ea"></stop></linearGradient></defs><path d="M 0,700 C 0,700 0,233 0,233 C 101.5,250.10714285714286 203,267.2142857142857 319,257 C 435,246.78571428571428 565.5,209.25 695,211 C 824.5,212.75 953,253.78571428571428 1077,264 C 1201,274.2142857142857 1320.5,253.60714285714286 1440,233 C 1440,233 1440,700 1440,700 Z" stroke="none" stroke-width="0" fill="url(#gradient)" fill-opacity="0.53" class="transition-all duration-300 ease-in-out delay-150 path-0"></path><defs><linearGradient id="gradient" x1="0%" y1="50%" x2="100%" y2="50%"><stop offset="5%" stop-color="#f7def4"></stop><stop offset="95%" stop-color="#bce2ea"></stop></linearGradient></defs><path d="M 0,700 C 0,700 0,466 0,466 C 94.39285714285714,509.82142857142856 188.78571428571428,553.6428571428571 326,540 C 463.2142857142857,526.3571428571429 643.25,455.25 773,416 C 902.75,376.75 982.2142857142858,369.35714285714283 1085,383 C 1187.7857142857142,396.64285714285717 1313.892857142857,431.32142857142856 1440,466 C 1440,466 1440,700 1440,700 Z" stroke="none" stroke-width="0" fill="url(#gradient)" fill-opacity="1" class="transition-all duration-300 ease-in-out delay-150 path-1"></path></svg>