<svg xmlns="http://www.w3.org/2000/svg" x="0px" y="0px"
width="60" height="60"
viewBox="0 0 30 30"
style=" fill:#000000;"><path d="M 16 4 C 10.013707 4 5.13508 8.8140969 5.0117188 14.771484 A 1.0001 1.0001 0 0 0 5.0019531 14.818359 L 3.0195312 24.804688 A 1.0001 1.0001 0 0 0 4 26 L 16 26 A 1.0001 1.0001 0 0 0 16.113281 25.994141 C 21.019331 25.932462 25 21.920271 25 17 C 25 12.188223 21.170516 8.3134518 16.414062 8.0839844 A 1.0001 1.0001 0 0 0 16 8 A 1.0001 1.0001 0 0 0 15.589844 8.0820312 C 11.935413 8.3067737 9 11.290861 9 15 C 9 18.81803 12.087987 21.935655 15.892578 21.994141 A 1.0001 1.0001 0 0 0 16 22 A 1.0001 1.0001 0 0 0 16.111328 21.994141 C 18.809549 21.933857 21 19.711981 21 17 C 21 14.250484 18.749516 12 16 12 A 1.0001 1.0001 0 1 0 16 14 C 17.668484 14 19 15.331516 19 17 C 19 18.668484 17.668484 20 16 20 C 13.226334 20 11 17.773666 11 15 C 11 12.226334 13.226334 10 16 10 C 19.877484 10 23 13.122516 23 17 C 23 20.877484 19.877484 24 16 24 C 11.017407 24 7 19.982593 7 15 C 7 10.017407 11.017407 6 16 6 C 20.612484 6 24.035156 9.21875 24.035156 9.21875 A 1.0001 1.0001 0 0 0 25.464844 9.1699219 L 27.738281 6.6738281 A 1.0001 1.0001 0 1 0 26.261719 5.3261719 L 24.578125 7.171875 C 23.584679 6.3218704 20.649838 4 16 4 z M 6.0703125 19.701172 C 6.8918634 21.428358 8.1453604 22.909443 9.6972656 24 L 5.2167969 24 L 6.0703125 19.701172 z"></path></svg>