<svg xmlns="http://www.w3.org/2000/svg" x="0px" y="0px"
width="60" height="60"
viewBox="0 0 30 30"
style=" fill:#000000;">    <path d="M24,4H6C4.895,4,4,4.895,4,6v18c0,1.105,0.895,2,2,2h18c1.105,0,2-0.895,2-2V6C26,4.895,25.105,4,24,4z M17,23H8 c-0.552,0-1-0.448-1-1v0c0-0.552,0.448-1,1-1h9c0.552,0,1,0.448,1,1v0C18,22.552,17.552,23,17,23z M22,19H8c-0.552,0-1-0.448-1-1v0 c0-0.552,0.448-1,1-1h14c0.552,0,1,0.448,1,1v0C23,18.552,22.552,19,22,19z M10.5,13.31C10.5,13.31,7,11,7,9c0-1.105,0.895-2,2-2 c0.601,0,1.133,0.27,1.5,0.69C10.867,7.27,11.399,7,12,7c1.105,0,2,0.895,2,2C14,11,10.5,13.31,10.5,13.31z"></path></svg>